<svg xmlns="http://www.w3.org/2000/svg" width="24" height="24" viewBox="0 0 24 24">
    <g fill="none" fill-rule="evenodd">
        <circle cx="12" cy="12" r="12" fill="#F7941E"/>
        <path fill="#FFF" fill-rule="nonzero" d="M15.804 12.02c.364-.421.59-.964.59-1.566 0-1.894-1.136-3.03-3.03-3.03h.001l-.001-2.272A.151.151 0 0 0 13.212 5h-.909a.15.15 0 0 0-.15.146v2.278h-1.212l-.001-2.272A.151.151 0 0 0 10.788 5H9.88a.15.15 0 0 0-.15.146v2.278H7.151A.151.151 0 0 0 7 7.576v.91c.003.08.07.15.152.15h.151c.67 0 1.212.544 1.212 1.213l.002 4.848c0 .633-.486 1.154-1.106 1.207a.152.152 0 0 0-.133.114l-.23.915a.152.152 0 0 0 .147.188H9.73v2.278a.15.15 0 0 0 .15.146h.91a.151.151 0 0 0 .15-.151l.002-2.273h1.212v2.278a.15.15 0 0 0 .15.146h.91a.151.151 0 0 0 .15-.151l.002-2.273h.605c1.894 0 3.03-1.136 3.03-3.03 0-.887-.484-1.65-1.196-2.07zM10.94 9.243h1.818a1.212 1.212 0 0 1 0 2.424H10.94V9.242zm2.424 6.06H10.94v-2.424h2.424a1.212 1.212 0 0 1 0 2.424z"/>
    </g>
</svg>
