<?xml version="1.0" encoding="UTF-8"?>
<svg width="101px" height="16px" viewBox="0 0 101 16" version="1.1" xmlns="http://www.w3.org/2000/svg" xmlns:xlink="http://www.w3.org/1999/xlink">
    <!-- Generator: sketchtool 50.2 (55047) - http://www.bohemiancoding.com/sketch -->
    <title>402E7C5C-2EA7-46BE-933E-63B3BD115BB9</title>
    <desc>Created with sketchtool.</desc>
    <defs>
        <polygon id="path-1" points="0 16 100.386 16 100.386 0.177 0 0.177"></polygon>
    </defs>
    <g id="Symbols" stroke="none" stroke-width="1" fill="none" fill-rule="evenodd">
        <g id="Tablet-GNB" transform="translate(-52.000000, -17.000000)">
            <g id="logo">
                <g transform="translate(52.000000, 16.000000)">
                    <polygon id="Fill-1" fill="#F1F6FF" points="11.2896 1.0318 11.2896 13.1168 2.1376 1.0318 -0.0004 1.0318 -0.0004 16.8128 2.3206 16.8128 2.3206 4.8568 11.2686 16.8128 13.5346 16.8128 13.5346 1.0318"></polygon>
                    <path d="M16.9407,1.0426 L16.9407,16.8236 L29.2727,16.8236 L29.2727,14.5666 L19.1747,14.5666 L19.1747,3.2876 L29.2727,3.2876 L29.2727,1.0426 L16.9407,1.0426 Z M20.4207,9.4106 L29.1007,9.4106 L29.1007,7.1876 L20.4207,7.1876 L20.4207,9.4106 Z" id="Fill-2" fill="#F1F6FF"></path>
                    <path d="M44.2575,16.8232 L47.4155,16.8232 L41.0995,8.9062 L47.3945,1.0322 L44.2155,1.0422 L39.5095,6.9192 L34.7615,1.0112 L31.6255,1.0002 L44.2575,16.8232 Z M31.5925,16.8232 L34.7395,16.8232 L38.7255,11.8502 L37.1465,9.8622 L31.5925,16.8232 Z" id="Fill-3" fill="#F1F6FF"></path>
                    <g id="Group-10" transform="translate(0.000000, 0.823200)">
                        <path d="M59.0176,6.3857 C60.2856,6.4217 60.9146,5.8657 60.9086,4.7207 L60.9086,4.1617 C60.9086,3.0307 60.3456,2.4647 59.2216,2.4647 L51.8846,2.4647 L51.8846,13.7437 L59.2216,13.7437 C60.3456,13.7297 60.9086,13.1747 60.9086,12.0787 L60.9086,10.1237 C60.9086,9.0997 60.2386,8.5877 58.8996,8.5877 L53.1526,8.5877 L53.1526,6.3857 L59.0176,6.3857 Z M49.6286,0.2087 L59.7806,0.2087 C61.8996,0.3597 63.0316,1.4877 63.1746,3.5927 L63.1636,5.2687 C63.1636,6.4067 62.7516,7.1587 61.9286,7.5247 C62.7516,7.7817 63.1636,8.4627 63.1636,9.5657 L63.1746,12.6157 C63.0316,14.7287 61.8996,15.8567 59.7806,15.9997 L49.6286,15.9997 L49.6286,0.2087 Z" id="Fill-4" fill="#F1F6FF"></path>
                        <mask id="mask-2" fill="white">
                            <use xlink:href="#path-1"></use>
                        </mask>
                        <g id="Clip-7"></g>
                        <polygon id="Fill-6" fill="#F1F6FF" mask="url(#mask-2)" points="67.246 16 69.48 16 69.48 0.22 67.246 0.22"></polygon>
                        <polygon id="Fill-8" fill="#F1F6FF" mask="url(#mask-2)" points="75.5713 13.7441 85.7223 13.7441 85.7223 16.0001 73.3473 16.0001 73.3473 0.2201 75.5713 0.2201"></polygon>
                        <polygon id="Fill-9" fill="#F1F6FF" mask="url(#mask-2)" points="90.2344 13.7441 100.3854 13.7441 100.3854 16.0001 88.0104 16.0001 88.0104 0.2201 90.2344 0.2201"></polygon>
                    </g>
                </g>
            </g>
        </g>
    </g>
</svg>